<svg xmlns="http://www.w3.org/2000/svg" width="933" height="306" viewBox="0 0 933 306" fill="none"><path d="M611.201 226.17C539.135 226.17 487.659 179.222 487.659 113.085C487.659 46.9487 539.135 0 611.201 0C657.736 0 694.387 20.0042 710.447 55.9302L660.618 82.4664C648.676 61.6457 630.968 52.256 610.79 52.256C578.257 52.256 552.725 74.7097 552.725 113.085C552.725 151.461 578.257 173.914 610.79 173.914C630.968 173.914 648.676 164.933 660.618 143.704L710.447 170.648C694.387 205.758 657.736 226.17 611.201 226.17Z" fill="white"></path><path d="M391.304 226.17C319.238 226.17 267.762 179.222 267.762 113.085C267.762 46.9487 319.238 0 391.304 0C437.838 0 474.489 20.0042 490.55 55.9302L440.721 82.4664C428.778 61.6457 411.071 52.256 390.892 52.256C358.359 52.256 332.827 74.7097 332.827 113.085C332.827 151.461 358.359 173.914 390.892 173.914C411.071 173.914 428.778 164.933 440.721 143.704L490.55 170.648C474.489 205.758 437.838 226.17 391.304 226.17Z" fill="white"></path><path d="M184.078 3.26598H245.025V186.162C245.025 267.812 200.55 305.371 120.66 305.371C78.6552 305.371 37.8863 295.165 11.9424 275.16L37.4745 229.436C56.4176 244.542 87.3032 254.34 115.718 254.34C161.017 254.34 180.783 233.927 180.783 194.327V184.937C163.899 203.308 139.603 212.29 110.776 212.29C49.4169 212.29 0 170.24 0 106.145C0 42.0497 49.4169 0 110.776 0C141.662 0 167.194 10.2062 184.078 31.4352V3.26598ZM123.542 160.034C157.31 160.034 181.607 138.397 181.607 106.145C181.607 73.8932 157.31 52.256 123.542 52.256C89.774 52.256 65.0656 73.8932 65.0656 106.145C65.0656 138.397 89.774 160.034 123.542 160.034Z" fill="white"></path><path d="M690.596 222.903L789.841 93.8961L788.606 129.006L693.478 3.26465H765.545L825.669 85.3228L798.489 86.1394L860.672 3.26465H929.032L833.493 127.781V93.4878L932.327 222.903H859.437L796.43 135.538L823.198 139.212L760.603 222.903H690.596Z" fill="#3DA378"></path></svg>